:version 1.10
:name ASF
:units
  mass 1
  length 1
  angle deg
:documentation
  ASF file generated by Kaydara
:root
  axis xyz
  order  tx ty tz rx ry rz
  position 0 0 0
  orientation 0 0 0
:bonedata
  begin
    id 1
    name RightUpLegDummy
    direction -1 2.30186e-007 8.31532e-007
    length 4.04083
    axis 0 0 0 xyz
  end
  begin
    id 2
    name RightUpLeg
    direction -0.000919234 -0.999985 0.00544864
    length 17.4221
    axis -3.80308 -0.00076134 -0.0523649 xyz
    dof rx ry rz
  end
  begin
    id 3
    name RightLeg
    direction -0.000919271 -0.999984 -0.00555045
    length 17.1239
    axis 4.00314 0.0181274 -0.183583 xyz
    dof rx ry rz
  end
  begin
    id 4
    name RightFoot
    direction -2.57843e-005 -4.04509e-007 1
    length 6.72091
    axis 8.18909e-005 -0.122003 -0.403008 xyz
    dof rx ry rz
  end
  begin
    id 5
    name RightToes
    direction 0.00116825 -0.014069 0.9999
    length 3.85082
    axis 0.000514414 0.540638 -0.356797 xyz
    dof rx ry rz
  end
  begin
    id 6
    name SpineDummy
    direction 0.0168869 0.966876 -0.254689
    length 6.99894
    axis 0 0 0 xyz
  end
  begin
    id 7
    name Spine
    direction -0.0132008 0.999903 0.00446247
    length 11.1999
    axis -0.00148109 0.00725429 0.756411 xyz
    dof rx ry rz
  end
  begin
    id 8
    name Spine1
    direction 0 0 0
    length 0
    axis -0.000934958 0.0245693 1.46543 xyz
    dof rx ry rz
  end
  begin
    id 9
    name HEadDummy
    direction -0.0255732 0.999672 0.00128215
    length 3.43865
    axis -0.000934958 0.0245693 1.46543 xyz
  end
  begin
    id 10
    name HEad
    direction -0.0472656 0.980052 0.19304
    length 5.12695
    axis -0.000934954 0.0245693 1.46543 xyz
    dof rx ry rz
  end
  begin
    id 11
    name LeftShoulder1Dummy
    direction 0.953098 0.301717 -0.023914
    length 3.68488
    axis -0.000934958 0.0245693 1.46543 xyz
  end
  begin
    id 12
    name LeftShoulder1
    direction 0.962466 0.271167 0.0112566
    length 3.13809
    axis -0.000934958 0.0245693 1.46543 xyz
    dof rx ry rz
  end
  begin
    id 13
    name LeftArm
    direction 0.999943 0.00455037 -0.00961766
    length 11.3419
    axis -23.1648 0.685459 1.22814 xyz
    dof rx ry rz
  end
  begin
    id 14
    name LeftForeArm
    direction 0.999332 0.0131969 0.0340885
    length 8.70632
    axis -9.90633 0.618216 0.0826942 xyz
    dof rx ry rz
  end
  begin
    id 15
    name LeftHand
    direction 0.994373 -0.0366703 0.0993905
    length 5.32135
    axis 0.00675269 0.680415 0.445699 xyz
    dof rx ry rz
  end
  begin
    id 16
    name RightShoulderDummy
    direction -0.967298 0.252589 -0.0230903
    length 3.68488
    axis -0.000934958 0.0245693 1.46543 xyz
  end
  begin
    id 17
    name RightShoulder
    direction -0.975062 0.221602 0.0120823
    length 3.13809
    axis 0.216257 0.0246515 1.45863 xyz
    dof rx ry rz
  end
  begin
    id 18
    name RightArm
    direction -0.99886 -0.00851186 -0.0469687
    length 10.3947
    axis -23.196 0.23503 -0.532632 xyz
    dof rx ry rz
  end
  begin
    id 19
    name RightForeArm
    direction -0.99909 0.00114866 0.0426317
    length 8.68355
    axis -9.91764 -0.134943 0.610517 xyz
    dof rx ry rz
  end
  begin
    id 20
    name RightHand
    direction -0.992888 -0.0489538 0.10852
    length 5.28593
    axis -0.00275396 -0.197403 0.246414 xyz
    dof rx ry rz
  end
  begin
    id 21
    name LeftUpLegDummy
    direction 1 -2.30186e-007 -8.31532e-007
    length 4.04083
    axis 0 0 0 xyz
  end
  begin
    id 22
    name LeftUpLeg
    direction -0.000920097 -1 2.79241e-006
    length 17.4221
    axis -3.48782 0.00143434 -0.0532288 xyz
    dof rx ry rz
  end
  begin
    id 23
    name LeftLeg
    direction -0.000920097 -1 2.7912e-006
    length 17.1239
    axis 3.68162 -0.00806512 -0.0529896 xyz
    dof rx ry rz
  end
  begin
    id 24
    name LeftFoot
    direction -2.57845e-005 -3.987e-007 1
    length 6.72091
    axis 3.02372e-005 -0.00147829 -0.214229 xyz
    dof rx ry rz
  end
  begin
    id 25
    name LeftToes
    direction 0.00813577 -0.00488255 0.999955
    length 3.85048
    axis 3.89895e-005 -0.0014783 -0.214229 xyz
    dof rx ry rz
  end
:hierarchy
  begin
    root RightUpLegDummy SpineDummy LeftUpLegDummy
    RightUpLegDummy RightUpLeg
    RightUpLeg RightLeg
    RightLeg RightFoot
    RightFoot RightToes
    SpineDummy Spine
    Spine Spine1
    Spine1 HEadDummy LeftShoulder1Dummy RightShoulderDummy
    HEadDummy HEad
    LeftShoulder1Dummy LeftShoulder1
    LeftShoulder1 LeftArm
    LeftArm LeftForeArm
    LeftForeArm LeftHand
    RightShoulderDummy RightShoulder
    RightShoulder RightArm
    RightArm RightForeArm
    RightForeArm RightHand
    LeftUpLegDummy LeftUpLeg
    LeftUpLeg LeftLeg
    LeftLeg LeftFoot
    LeftFoot LeftToes
  end

:SAMPLES-PER-SECOND 30
:FULLY-SPECIFIED
:DEGREES
1
root  -12.0019 34.5847 -18.2016 -170.265 1.03893 179.844
RightUpLeg  -7.77516 -12.5428 0.188932
RightLeg  5.59269 -2.4575 -0.0806476
RightFoot  2.50801 0.0149324 0.0397409
RightToes  -21.9972 -0.0949938 -0.194822
Spine  -2.97396 -0.0494797 0.0885066
Spine1  -6.03868 0.0135956 0.767647
HEad  -64.5846 2.03548 5.91374
LeftShoulder1  -1.94126e-019 -3.10601e-018 -2.51263e-017
LeftArm  -13.6655 26.2759 -81.8026
LeftForeArm  31.9622 -15.4866 -2.48119
LeftHand  -0.377387 -0.709596 7.30292
RightShoulder  -4.96962e-017 0 -2.36833e-017
RightArm  -28.302 -24.5615 77.2382
RightForeArm  56.8848 13.7529 1.28702
RightHand  -0.339943 -1.26283 -9.30187
LeftUpLeg  -8.24504 3.25505 1.18098
LeftLeg  6.23936 13.1437 0.581078
LeftFoot  3.66464 -0.0206711 0.978612
LeftToes  -18.3806 1.48347e-006 1.01831e-007
2
root  -12.0068 34.5847 -18.2016 -170.28 1.05296 179.815
RightUpLeg  -7.89215 -13.433 0.169188
RightLeg  5.83245 -1.5714 -0.0577915
RightFoot  2.36836 0.012207 0.0786861
RightToes  -22.0473 -0.0949938 -0.194822
Spine  -2.97396 -0.0494797 0.0885066
Spine1  -6.03868 0.0135955 0.754453
HEad  -64.606 2.0709 5.96043
LeftShoulder1  -1.94126e-019 -3.10601e-018 -2.51263e-017
LeftArm  -13.6245 26.3086 -81.8001
LeftForeArm  31.9387 -15.4972 -2.47851
LeftHand  -0.376836 -0.691368 7.32386
RightShoulder  -4.96962e-017 0 -2.36833e-017
RightArm  -28.3628 -24.5245 77.2416
RightForeArm  56.9386 13.7379 1.29073
RightHand  -0.339883 -1.24697 -9.3046
LeftUpLeg  -8.19668 3.05696 1.14826
LeftLeg  6.20504 13.3585 0.582477
LeftFoot  3.69607 -0.0221216 1.00116
LeftToes  -18.4845 1.48347e-006 1.01831e-007
3
root  -12.0068 34.5847 -18.2016 -170.28 1.05296 179.815
RightUpLeg  -7.89215 -13.433 0.169188
RightLeg  5.83245 -1.5714 -0.0577915
RightFoot  2.36836 0.012207 0.0786861
RightToes  -22.0473 -0.0949938 -0.194822
Spine  -2.97396 -0.0494797 0.0885066
Spine1  -6.03868 0.0135955 0.754453
HEad  -64.606 2.0709 5.96043
LeftShoulder1  -1.94126e-019 -3.10601e-018 -2.51263e-017
LeftArm  -13.6245 26.3086 -81.8001
LeftForeArm  31.9387 -15.4972 -2.47851
LeftHand  -0.376836 -0.691368 7.32386
RightShoulder  -4.96962e-017 0 -2.36833e-017
RightArm  -28.3628 -24.5245 77.2416
RightForeArm  56.9386 13.7379 1.29073
RightHand  -0.339883 -1.24697 -9.3046
LeftUpLeg  -8.19668 3.05696 1.14826
LeftLeg  6.20504 13.3585 0.582477
LeftFoot  3.69607 -0.0221216 1.00116
LeftToes  -18.4845 1.48347e-006 1.01831e-007
4
root  -12.0181 34.5847 -18.2095 -170.244 1.06847 179.804
RightUpLeg  -7.86249 -13.3018 0.139121
RightLeg  5.72514 -1.68146 -0.0587638
RightFoot  2.41816 0.0122521 0.0780411
RightToes  -22.0804 -0.0949938 -0.194822
Spine  -2.98444 -0.0494797 0.0885066
Spine1  -6.05949 -0.0012469 0.754268
HEad  -64.6235 2.4646 6.01175
LeftShoulder1  -1.94126e-019 -3.10601e-018 -2.51263e-017
LeftArm  -13.5862 26.3276 -81.8013
LeftForeArm  31.9605 -15.3902 -2.46159
LeftHand  -0.379597 -0.800291 7.22366
RightShoulder  -4.96962e-017 0 -2.36833e-017
RightArm  -28.311 -24.4874 77.2451
RightForeArm  56.8568 13.768 1.28326
RightHand  -0.3411 -1.1902 -9.26351
LeftUpLeg  -8.21126 3.05852 1.11574
LeftLeg  6.18595 13.3625 0.578231
LeftFoot  3.68893 -0.0218424 0.996818
LeftToes  -18.4263 1.48347e-006 1.01831e-007
5
root  -12.0266 34.5847 -18.2149 -170.233 1.11786 179.804
RightUpLeg  -7.87743 -13.232 0.121989
RightLeg  5.74189 -1.71197 -0.0603477
RightFoot  2.39817 0.0123147 0.0771473
RightToes  -22.0838 -0.0949938 -0.194822
Spine  -2.98947 -0.0377604 0.0885069
Spine1  -6.06976 0.0233629 0.754082
HEad  -64.6019 2.98991 6.12579
LeftShoulder1  -1.94126e-019 -3.10601e-018 -2.51263e-017
LeftArm  -13.6415 26.3239 -81.8125
LeftForeArm  31.9727 -15.2552 -2.44476
LeftHand  -0.377568 -0.705328 7.29322
RightShoulder  -4.96962e-017 0 -2.36833e-017
RightArm  -28.3161 -24.4789 77.2459
RightForeArm  56.8672 13.8005 1.27518
RightHand  -0.342451 -1.14017 -9.21733
LeftUpLeg  -8.21086 3.059 1.10089
LeftLeg  6.19697 13.4064 0.582659
LeftFoot  3.64283 -0.0215631 0.992477
LeftToes  -18.3206 1.48347e-006 1.01831e-007
6
root  -12.0266 34.5847 -18.2149 -170.233 1.11786 179.803
RightUpLeg  -7.87743 -13.232 0.121989
RightLeg  5.74189 -1.71176 -0.0588525
RightFoot  2.39817 0.012389 0.0760857
RightToes  -22.0838 -0.0949938 -0.194822
Spine  -2.98947 -0.0377604 0.0885069
Spine1  -6.06976 0.0233629 0.754082
HEad  -64.6019 2.98991 6.12579
LeftShoulder1  -1.94126e-019 -3.10601e-018 -2.51263e-017
LeftArm  -13.6415 26.3239 -81.8125
LeftForeArm  31.974 -15.2552 -2.44476
LeftHand  -0.377568 -0.705328 7.29322
RightShoulder  -4.96962e-017 0 -2.36833e-017
RightArm  -28.3162 -24.4745 77.2463
RightForeArm  56.8672 13.8005 1.27518
RightHand  -0.342451 -1.14017 -9.21733
LeftUpLeg  -8.21086 3.059 1.10089
LeftLeg  6.19697 13.4064 0.582659
LeftFoot  3.64283 -0.0215631 0.992477
LeftToes  -18.3206 1.48347e-006 1.01831e-007
7
root  -12.0353 34.5847 -18.22 -170.233 1.15401 179.802
RightUpLeg  -7.88579 -13.2039 0.106192
RightLeg  5.75516 -1.69341 -0.0600745
RightFoot  2.40196 0.0124694 0.0749367
RightToes  -22.1308 -0.0949938 -0.194822
Spine  -2.99435 -0.0226679 0.0904557
Spine1  -6.08272 0.0535887 0.758982
HEad  -64.4047 3.34271 6.09792
LeftShoulder1  -1.94126e-019 -3.10601e-018 -2.51263e-017
LeftArm  -13.6668 26.3455 -81.8028
LeftForeArm  31.9753 -15.2211 -2.44297
LeftHand  -0.377169 -0.714828 7.31463
RightShoulder  -4.96962e-017 0 -2.36833e-017
RightArm  -28.3143 -24.4715 77.2219
RightForeArm  56.9328 13.7407 1.28266
RightHand  -0.340241 -1.1521 -9.29598
LeftUpLeg  -8.20045 3.04971 1.08524
LeftLeg  6.19974 13.457 0.585465
LeftFoot  3.60765 -0.0215152 0.991732
LeftToes  -18.2265 1.48347e-006 1.01831e-007
8
root  -12.0406 34.5847 -18.223 -170.232 1.1562 179.8
RightUpLeg  -7.89692 -13.1718 0.0959999
RightLeg  5.78804 -1.72624 -0.062248
RightFoot  2.38249 0.0125502 0.0737812
RightToes  -22.1104 -0.0949938 -0.194822
Spine  -2.99964 -0.0133346 0.0924096
Spine1  -6.08979 0.0719458 0.764219
HEad  -64.2304 3.37014 6.08434
LeftShoulder1  -1.94126e-019 -3.10601e-018 -2.51263e-017
LeftArm  -13.6776 26.3478 -81.7788
LeftForeArm  31.9739 -15.1966 -2.44179
LeftHand  -0.37856 -0.726503 7.25209
RightShoulder  -4.96962e-017 0 -2.36833e-017
RightArm  -28.3359 -24.4747 77.2077
RightForeArm  56.945 13.6933 1.2891
RightHand  -0.340719 -1.20713 -9.27639
LeftUpLeg  -8.20058 3.04467 1.07764
LeftLeg  6.20911 13.4521 0.587438
LeftFoot  3.61084 -0.0214391 0.99055
LeftToes  -18.2874 1.48347e-006 1.01831e-007
